<?xml version="1.0" standalone="no"?>
<!DOCTYPE svg PUBLIC "-//W3C//DTD SVG 20010904//EN"
 "http://www.w3.org/TR/2001/REC-SVG-20010904/DTD/svg10.dtd">
<svg version="1.0" xmlns="http://www.w3.org/2000/svg"
 width="200.000000pt" height="200.000000pt" viewBox="0 0 200.000000 200.000000"
 preserveAspectRatio="xMidYMid meet">
<metadata>
Created by potrace 1.14, written by Peter Selinger 2001-2017
</metadata>
<g transform="translate(0.000000,200.000000) scale(0.100000,-0.100000)"
fill="#000000" stroke="none">
<path d="M476 1561 c-16 -18 -146 -349 -146 -372 0 -6 57 -8 147 -7 l147 3 12
60 c6 33 21 114 33 180 13 66 25 128 27 138 5 15 -4 17 -99 17 -90 0 -106 -3
-121 -19z"/>
<path d="M745 1558 c-10 -44 -65 -355 -65 -367 0 -8 41 -11 153 -9 l152 3 0
195 0 195 -117 3 c-115 3 -118 2 -123 -20z"/>
<path d="M1040 1380 l0 -200 145 0 c80 0 145 3 145 8 0 4 -16 92 -35 196 -19
104 -35 191 -35 193 0 2 -49 3 -110 3 l-110 0 0 -200z"/>
<path d="M1313 1558 c6 -26 67 -364 67 -372 0 -3 68 -6 150 -6 83 0 150 3 150
6 0 13 -164 360 -178 377 -12 14 -32 17 -105 17 -87 0 -89 0 -84 -22z"/>
<path d="M310 1125 c0 -29 29 -73 66 -101 82 -63 215 -14 239 88 l7 26 -156 1
c-136 1 -156 0 -156 -14z"/>
<path d="M660 1091 c0 -34 5 -44 34 -66 18 -14 58 -31 87 -37 48 -10 59 -9
106 11 61 27 90 56 99 99 l7 32 -167 0 -166 0 0 -39z"/>
<path d="M1042 1093 c4 -50 64 -94 137 -101 89 -8 180 53 165 112 l-6 26 -150
0 -149 0 3 -37z"/>
<path d="M1395 1103 c11 -46 31 -69 80 -93 78 -38 151 -16 203 60 40 59 38 60
-134 60 l-156 0 7 -27z"/>
<path d="M985 1010 c-42 -44 -106 -72 -167 -72 -63 -1 -111 18 -160 61 l-36
32 -26 -26 c-35 -35 -86 -55 -141 -55 l-45 0 0 -285 0 -285 29 -32 29 -33 526
-3 c465 -2 530 -1 557 13 55 29 59 55 59 355 l0 270 -52 0 c-58 0 -122 25
-152 59 -25 28 -37 27 -71 -9 -38 -39 -112 -64 -168 -55 -48 8 -120 46 -140
75 -13 19 -14 19 -42 -10z m-35 -400 l0 -260 -162 2 -163 3 -3 258 -2 257 165
0 165 0 0 -260z m445 115 l0 -140 -115 -3 c-173 -4 -160 -16 -160 142 0 73 3
136 7 140 4 3 66 5 137 4 l131 -3 0 -140z"/>
</g>
</svg>
